# xmcd
#
# Track frame offsets: 
#        150
#        15040
#        29530
#        45352
#        62323
#        78269
#        91900
#        109032
#        125298
#        139474
#        158599
#        171173
#        187227
#        203126
#        216393
#        233897
#        256098
#        271762
#
# Disc length: 3927 seconds
#
# Revision: 0
# Processed by: cddbd v1.5.2PL0 Copyright (c) Steve Scherf et al.
# Submitted via: ExactAudioCopy v1.0b1
#
DISCID=e60f5512
DTITLE=Paul Sikes - Raw Materials
DYEAR=2008
DGENRE=Country
TTITLE0=The Good Die Old
TTITLE1=Lucky Man
TTITLE2=The Extra Mile
TTITLE3=My Granddaddy's Name
TTITLE4=When You're Feeling Low
TTITLE5=Just As I Am
TTITLE6=What Broken Hearts Do
TTITLE7=I Could Bring You Back
TTITLE8=Ordinary People
TTITLE9=Homeless
TTITLE10=Mind Of Its Own
TTITLE11=Bad Day
TTITLE12=What They're Having
TTITLE13=Doing What It Does
TTITLE14=Praying For You
TTITLE15=I Want You Beside Me
TTITLE16=Backroads
TTITLE17=Circles
EXTD=
EXTT0=
EXTT1=
EXTT2=
EXTT3=
EXTT4=
EXTT5=
EXTT6=
EXTT7=
EXTT8=
EXTT9=
EXTT10=
EXTT11=
EXTT12=
EXTT13=
EXTT14=
EXTT15=
EXTT16=
EXTT17=
PLAYORDER=
